<?xml version="1.0" standalone="no"?>
<!DOCTYPE svg PUBLIC "-//W3C//DTD SVG 20010904//EN"
 "http://www.w3.org/TR/2001/REC-SVG-20010904/DTD/svg10.dtd">
<svg version="1.0" xmlns="http://www.w3.org/2000/svg"
 width="300.000000pt" height="300.000000pt" viewBox="0 0 300.000000 300.000000"
 preserveAspectRatio="xMidYMid meet">
<metadata>
Created by potrace 1.11, written by Peter Selinger 2001-2013
</metadata>
<g transform="translate(0.000000,300.000000) scale(0.100000,-0.100000)"
fill="#000000" stroke="none">
<path d="M1396 2702 c-2 -1 -25 -5 -52 -8 -118 -12 -300 -71 -414 -132 -141
-77 -295 -212 -398 -347 -50 -67 -162 -275 -162 -301 0 -7 -5 -25 -12 -41 -13
-32 -12 -29 -21 -68 -19 -80 -27 -132 -33 -203 -7 -105 -15 -100 146 -99 156
0 150 -3 156 77 3 54 13 110 31 170 35 124 114 277 136 263 6 -3 7 -1 3 5 -15
24 154 192 249 249 47 28 120 63 131 63 7 0 14 4 16 9 2 5 50 21 107 35 82 20
106 23 113 14 5 -9 8 -9 8 -2 0 7 14 14 30 16 17 3 30 1 30 -4 0 -5 5 -6 11
-3 14 9 69 13 69 5 0 -4 12 -5 28 -3 15 3 39 0 55 -6 l27 -11 0 -201 c-1 -133
2 -205 10 -214 15 -18 265 -17 280 1 16 19 14 635 -2 649 -22 20 -148 60 -221
71 -18 2 -50 7 -72 10 -43 6 -245 11 -249 6z"/>
<path d="M2106 2511 c-8 -13 -9 -522 -1 -543 6 -14 31 -16 245 -15 131 1 242
5 246 9 18 18 -78 193 -161 295 -77 93 -206 210 -271 245 -38 20 -50 22 -58 9z"/>
<path d="M1394 2249 c-2 -4 -19 -6 -38 -5 -19 1 -32 -2 -30 -5 2 -4 -20 -13
-48 -20 -29 -7 -72 -22 -95 -35 -24 -12 -43 -21 -43 -18 0 2 -9 -4 -20 -14
-12 -9 -24 -17 -28 -17 -9 0 -31 -18 -125 -101 -26 -23 -64 -71 -97 -124 -19
-30 -39 -58 -45 -62 -5 -4 -6 -8 -1 -8 5 0 4 -6 -1 -12 -27 -36 -62 -165 -69
-255 -7 -76 -12 -74 165 -70 l125 2 11 52 c7 29 10 54 8 56 -2 3 10 35 28 72
29 64 61 109 102 144 67 58 71 60 84 49 10 -8 12 -7 8 4 -9 23 104 64 191 71
11 0 21 8 22 17 6 55 1 265 -7 273 -10 10 -91 15 -97 6z"/>
<path d="M1430 1794 c-25 -6 -51 -13 -59 -15 -32 -9 -118 -96 -141 -144 -19
-40 -42 -160 -31 -170 2 -3 6 -14 8 -25 5 -34 8 -45 13 -50 3 -3 17 -26 30
-52 14 -27 30 -48 35 -48 6 0 16 -9 23 -20 7 -11 18 -20 25 -20 7 0 19 -6 26
-12 6 -7 15 -13 19 -14 4 0 23 -5 43 -11 99 -29 219 4 294 81 21 23 43 40 47
39 4 -2 5 4 2 12 -4 8 -1 15 7 15 7 0 10 3 6 6 -3 3 -1 18 5 33 19 51 24 95
14 151 -21 116 -98 205 -205 237 -70 21 -104 22 -161 7z"/>
<path d="M1961 1490 c-9 -8 -16 -26 -15 -40 0 -14 -2 -29 -5 -35 -3 -5 -7 -21
-9 -35 -6 -46 -66 -144 -120 -197 -30 -29 -58 -53 -62 -53 -5 0 -15 -6 -22
-13 -18 -18 -124 -55 -172 -61 -21 -2 -42 -8 -47 -13 -7 -7 -12 -128 -10 -250
l1 -43 68 4 c37 3 79 9 93 15 15 5 30 7 33 4 3 -3 12 0 21 7 8 7 15 9 15 5 0
-4 7 -2 15 5 8 7 15 10 15 6 0 -4 11 1 25 10 14 9 32 14 40 10 8 -3 14 -2 12
2 -1 4 0 7 3 7 3 0 12 6 20 13 8 7 37 27 63 44 54 35 146 123 187 180 15 20
31 34 35 30 5 -4 5 -2 2 5 -4 6 9 41 28 77 19 36 37 76 39 88 3 13 10 41 16
63 18 73 23 162 10 170 -7 4 -69 8 -138 9 -98 1 -128 -2 -141 -14z"/>
<path d="M2455 1502 c-22 -2 -43 -6 -46 -10 -4 -4 -10 -34 -13 -67 -12 -114
-25 -167 -39 -159 -9 5 -9 4 -1 -5 12 -13 -3 -71 -18 -71 -4 0 -5 -6 -2 -14 3
-7 -2 -20 -10 -29 -8 -8 -12 -17 -9 -21 4 -3 1 -6 -5 -6 -7 0 -11 -4 -9 -8 2
-8 -32 -81 -43 -92 -3 -3 -18 -23 -33 -46 -35 -52 -122 -144 -136 -144 -6 0
-11 -4 -11 -9 0 -11 -95 -81 -110 -81 -6 0 -10 -4 -10 -8 0 -7 -102 -59 -130
-67 -3 -1 -17 -7 -31 -13 -22 -8 -81 -23 -109 -27 -3 0 -9 -3 -15 -6 -24 -14
-250 -18 -297 -6 l-27 7 -1 207 c0 114 -4 211 -9 216 -12 12 -270 12 -282 0
-5 -5 -8 -144 -7 -334 l3 -324 60 -20 c33 -11 66 -24 73 -28 6 -5 12 -6 12 -4
0 3 17 1 38 -5 69 -17 127 -22 262 -22 149 -1 206 5 295 29 33 9 65 18 70 19
6 2 23 8 38 14 16 7 31 12 33 12 3 0 32 13 65 29 32 17 59 28 59 25 0 -3 6 0
13 6 6 5 46 32 87 59 41 27 85 59 97 70 12 12 24 21 26 21 5 0 86 82 132 134
15 16 38 46 52 67 14 21 30 36 36 32 5 -3 7 -2 4 3 -8 13 47 106 57 97 4 -5 6
-3 4 2 -5 16 33 106 43 100 5 -4 6 1 3 10 -4 8 0 22 7 31 7 9 14 23 15 32 1
10 14 62 28 117 32 125 44 272 23 280 -17 7 -175 11 -232 7z"/>
<path d="M523 1052 c-89 -2 -112 -6 -117 -18 -10 -25 106 -239 137 -252 4 -2
7 -8 7 -13 0 -6 10 -20 23 -33 12 -13 44 -47 71 -76 27 -28 64 -63 83 -77 18
-14 30 -30 26 -36 -3 -5 -1 -7 4 -4 6 4 29 -7 51 -23 50 -36 88 -45 90 -22 4
72 1 522 -4 535 -5 14 -22 17 -103 18 -53 0 -109 1 -126 2 -16 1 -80 1 -142
-1z"/>
</g>
</svg>
